HIERARCHY
ROOT Hips
{
	OFFSET 0.000000 0.000000 0.000000 
	CHANNELS 6 Xposition Yposition Zposition Zrotation Yrotation Xrotation
	JOINT LeftUpLeg
	{
		OFFSET 1.363060 -1.794630 0.839290 
		CHANNELS 3 Zrotation Yrotation Xrotation
		JOINT LeftLeg
		{
			OFFSET 2.448110 -6.726130 0.000000 
			CHANNELS 3 Zrotation Yrotation Xrotation
			JOINT LeftFoot
			{
				OFFSET 2.562200 -7.039590 0.000000 
				CHANNELS 3 Zrotation Yrotation Xrotation
				JOINT LeftToeBase
				{
					OFFSET 0.157640 -0.433110 2.322550 
					CHANNELS 3 Zrotation Yrotation Xrotation
					End Site
					{
						OFFSET 0.000000 0.000000 0.000000 
					}
				}
			}
		}
	}
	JOINT RightUpLeg
	{
		OFFSET -1.305520 -1.794630 0.839290 
		CHANNELS 3 Zrotation Yrotation Xrotation
		JOINT RightLeg
		{
			OFFSET -2.542530 -6.985550 0.000000 
			CHANNELS 3 Zrotation Yrotation Xrotation
			JOINT RightFoot
			{
				OFFSET -2.568260 -7.056230 0.000000 
				CHANNELS 3 Zrotation Yrotation Xrotation
				JOINT RightToeBase
				{
					OFFSET -0.164730 -0.452590 2.363150 
					CHANNELS 3 Zrotation Yrotation Xrotation
					End Site
					{
						OFFSET 0.000000 0.000000 0.000000 
					}
				}
			}
		}
	}
	JOINT Spine
	{
		OFFSET 0.028270 2.035590 -0.193380 
		CHANNELS 3 Zrotation Yrotation Xrotation
		JOINT Spine1
		{
			OFFSET 0.056720 2.048850 -0.042750 
			CHANNELS 3 Zrotation Yrotation Xrotation
			JOINT Neck1
			{
				OFFSET -0.054170 1.746240 0.172020 
				CHANNELS 3 Zrotation Yrotation Xrotation
				JOINT Head
				{
					OFFSET 0.104070 1.761360 -0.123970 
					CHANNELS 3 Zrotation Yrotation Xrotation
					End Site
					{
						OFFSET 0.000000 0.000000 0.000000 
					}
				}
			}
			JOINT LeftArm
			{
				OFFSET 3.362410 1.200890 -0.311210 
				CHANNELS 3 Zrotation Yrotation Xrotation
				JOINT LeftForeArm
				{
					OFFSET 4.983000 -0.000000 -0.000000 
					CHANNELS 3 Zrotation Yrotation Xrotation
					JOINT LeftHand
					{
						OFFSET 3.483560 -0.000000 -0.000000 
						CHANNELS 3 Zrotation Yrotation Xrotation
						JOINT LeftHandIndex1
						{
							OFFSET 0.715260 -0.000000 -0.000000 
							CHANNELS 3 Zrotation Yrotation Xrotation
							End Site
							{
								OFFSET 0.000000 0.000000 0.000000 
							}
						}
					}
				}
			}
			JOINT RightArm
			{
				OFFSET -3.136600 1.374050 -0.404650 
				CHANNELS 3 Zrotation Yrotation Xrotation
				JOINT RightForeArm
				{
					OFFSET -5.241900 -0.000000 -0.000000 
					CHANNELS 3 Zrotation Yrotation Xrotation
					JOINT RightHand
					{
						OFFSET -3.444170 -0.000000 -0.000000 
						CHANNELS 3 Zrotation Yrotation Xrotation
						JOINT RightHandIndex1
						{
							OFFSET -0.622530 -0.000000 -0.000000 
							CHANNELS 3 Zrotation Yrotation Xrotation
							End Site
							{
								OFFSET 0.000000 0.000000 0.000000 
							}
						}
					}
				}
			}
		}
	}
}
MOTION
Frames: 18
Frame Time: 0.041667
-0.090594 18.499127 4.197818 -2.842783 -5.535978 16.985572 -11.126556 -8.945522 -34.086603 1.880663 9.938054 29.181922 -1.121588 7.630435 -8.538906 8.132900 -16.216100 -53.039800 2.576702 2.159401 -1.293111 0.025846 1.076952 1.560951 0.370981 -0.524138 5.899669 0.000000 0.000000 0.000000 -15.363896 1.240572 36.291578 2.866644 0.573373 -24.593631 3.388790 1.837522 12.196252 0.611200 1.280800 8.464200 -94.436791 -65.237817 27.533754 33.290211 -42.527304 -12.289359 -0.500709 1.410335 -84.079911 -7.125000 0.000000 0.000000 77.431271 25.808144 55.002544 -99.495102 54.819503 -60.285004 0.898617 0.408160 -85.420890 7.125000 0.000000 0.000000 
-0.092751 18.497656 4.196543 -2.880429 -5.421070 16.960043 -11.051302 -8.997296 -34.077137 1.884022 9.943795 29.195804 -1.110455 7.581997 -8.544845 8.098200 -16.191000 -52.915600 2.575089 2.160109 -1.291229 0.025857 1.078204 1.561419 0.371337 -0.522886 5.900119 0.000000 0.000000 0.000000 -15.463313 1.190182 36.239475 2.891052 0.543704 -24.612988 3.364979 1.818425 12.141594 0.593700 1.271900 8.454700 -94.394654 -65.213726 27.599713 33.178600 -42.443862 -12.228924 -0.492915 1.415561 -84.220871 -7.125000 0.000000 0.000000 77.382221 25.739061 54.932183 -99.271057 54.873819 -60.055162 0.899498 0.420838 -85.416822 7.125000 0.000000 0.000000 
-0.094908 18.496381 4.193896 -2.889244 -5.313691 16.950523 -11.008278 -9.069302 -34.082470 1.886574 9.947178 29.207125 -1.108298 7.573567 -8.554587 8.089700 -16.184900 -52.885200 2.575315 2.159735 -1.291391 0.025912 1.077842 1.561194 0.371209 -0.523295 5.900031 0.000000 0.000000 0.000000 -15.486983 1.120449 36.221140 2.930620 0.513587 -24.605869 3.368611 1.839936 12.085949 0.598600 1.282400 8.460400 -94.648758 -65.350207 27.475861 32.945021 -42.285321 -12.100659 -0.475327 1.419950 -83.914729 -7.125000 0.000000 0.000000 77.320635 25.757785 54.996719 -98.877868 54.976784 -59.637422 0.917485 0.428260 -85.367046 7.125000 0.000000 0.000000 
-0.094810 18.494616 4.191739 -2.855112 -5.192095 16.953552 -11.020398 -9.174129 -34.094279 1.886734 9.946680 29.208520 -1.114860 7.602747 -8.552790 8.109400 -16.199100 -52.955700 2.575747 2.159338 -1.291656 0.025928 1.077428 1.560940 0.371060 -0.523774 5.899966 0.000000 0.000000 0.000000 -15.487091 1.034612 36.225018 2.947033 0.473993 -24.584677 3.411701 1.834674 11.960642 0.618500 1.279000 8.447400 -94.610994 -65.440903 27.290682 32.842179 -42.199956 -12.039568 -0.465586 1.420474 -83.640250 -7.125000 0.000000 0.000000 77.297640 25.774245 55.143963 -98.637798 55.043122 -59.367244 0.941291 0.431764 -85.450670 7.125000 0.000000 0.000000 
-0.094614 18.493048 4.188994 -2.820153 -5.074456 16.944179 -11.040011 -9.275569 -34.078648 1.884351 9.937571 29.192383 -1.122989 7.636368 -8.548741 8.112900 -16.201700 -52.968500 2.577116 2.158363 -1.292692 0.025942 1.076281 1.560302 0.370728 -0.525060 5.899746 0.000000 0.000000 0.000000 -15.392824 0.936835 36.272801 2.963566 0.439108 -24.577012 3.381575 1.832186 11.679080 0.615700 1.264500 8.368400 -94.152570 -65.456589 27.076033 32.946628 -42.243421 -12.093793 -0.462920 1.417638 -83.545860 -7.125000 0.000000 0.000000 77.308188 25.788096 55.295550 -98.412532 55.107280 -59.107621 0.964905 0.442555 -85.417755 7.125000 0.000000 0.000000 
-0.096281 18.491969 4.185072 -2.775747 -5.001546 16.942579 -11.095049 -9.285366 -34.080364 1.879105 9.921809 29.155122 -1.123043 7.628257 -8.507424 8.121700 -16.208100 -53.000000 2.578883 2.157220 -1.294197 0.025955 1.074825 1.559554 0.370301 -0.526652 5.899410 0.000000 0.000000 0.000000 -15.277309 0.856414 36.327385 2.971359 0.412785 -24.556850 3.292712 1.862875 11.340592 0.591100 1.261300 8.271300 -93.576797 -65.565025 26.849551 33.081855 -42.298763 -12.165079 -0.461102 1.414086 -83.416532 -7.125000 0.000000 0.000000 77.431107 25.835541 55.400923 -98.075136 55.201984 -58.722168 0.994449 0.469481 -85.162914 7.125000 0.000000 0.000000 
-0.097163 18.492165 4.181346 -2.682390 -4.959446 16.936407 -11.220052 -9.268045 -34.076620 1.870657 9.902363 29.103890 -1.117008 7.594397 -8.468707 8.123400 -16.209300 -53.006100 2.579326 2.156890 -1.294218 0.025929 1.074544 1.559339 0.370225 -0.527019 5.899448 0.000000 0.000000 0.000000 -15.214034 0.811532 36.335079 2.950345 0.397221 -24.567016 3.229162 1.854248 10.997016 0.565800 1.242500 8.166600 -93.213851 -65.690609 26.740239 33.147087 -42.321530 -12.203464 -0.452679 1.412673 -83.210617 -7.125000 0.000000 0.000000 77.659422 25.860226 55.457705 -97.756742 55.292729 -58.352107 1.022854 0.501973 -85.039286 7.125000 0.000000 0.000000 
-0.097555 18.493636 4.177228 -2.547040 -4.903857 16.889135 -11.386422 -9.295091 -34.007957 1.862605 9.871622 29.043841 -1.109914 7.553550 -8.446655 8.083100 -16.180000 -52.861400 2.583507 2.154039 -1.297793 0.026016 1.070933 1.557512 0.369241 -0.530926 5.898552 0.000000 0.000000 0.000000 -14.924150 0.709578 36.402662 2.993567 0.395547 -24.634377 3.240064 1.874593 10.719390 0.598600 1.235600 8.073200 -92.935716 -65.774483 26.447231 33.247355 -42.386832 -12.272118 -0.437195 1.410879 -83.023965 -7.125000 0.000000 0.000000 77.768770 25.972437 55.645480 -97.416680 55.392362 -57.961005 1.046731 0.532459 -85.282126 7.125000 0.000000 0.000000 
-0.097163 18.495303 4.172130 -2.412339 -4.792419 16.835103 -11.558183 -9.348731 -33.932172 1.856580 9.828795 28.974717 -1.112812 7.541620 -8.356339 8.084100 -16.180800 -52.865200 2.594024 2.147141 -1.307624 0.026248 1.061794 1.553075 0.366686 -0.540678 5.896063 0.000000 0.000000 0.000000 -14.289443 0.472113 36.590800 3.120391 0.379709 -24.717399 3.332861 2.020021 10.549085 0.711800 1.285500 8.021000 -92.420976 -65.883453 25.666846 33.465411 -42.522220 -12.409192 -0.420866 1.404856 -82.786920 -7.125000 0.000000 0.000000 77.729960 26.311192 56.076353 -96.844601 55.557581 -57.320095 1.080038 0.573103 -85.504267 7.125000 0.000000 0.000000 
-0.097359 18.496577 4.166149 -2.269033 -4.747934 16.847182 -11.723419 -9.387425 -33.953605 1.842085 9.801519 28.889566 -1.121851 7.563783 -8.217507 8.114600 -16.202900 -52.974400 2.592270 2.147894 -1.304468 0.026145 1.063494 1.553579 0.367316 -0.539110 5.896943 0.000000 0.000000 0.000000 -14.171848 0.457969 36.530860 3.043284 0.381747 -24.870758 3.165927 1.955818 10.238743 0.644600 1.231100 7.890700 -92.079975 -65.811887 25.719560 33.760600 -42.735817 -12.594383 -0.408254 1.399893 -82.554501 -7.125000 0.000000 0.000000 78.104239 26.392326 56.106920 -96.147453 55.754446 -56.538969 1.129116 0.626636 -85.317845 7.125000 0.000000 0.000000 
-0.099810 18.497656 4.160169 -2.118196 -4.699004 16.862355 -11.902951 -9.400924 -33.971633 1.827615 9.768495 28.799472 -1.124953 7.559959 -8.103101 8.099900 -16.192300 -52.921800 2.593832 2.146775 -1.304893 0.026090 1.062382 1.552878 0.367146 -0.540438 5.896915 0.000000 0.000000 0.000000 -13.890527 0.415356 36.536890 2.978640 0.385734 -24.987250 2.916830 1.984218 9.964875 0.568100 1.213700 7.788600 -91.566257 -65.879049 25.587677 34.066358 -42.934117 -12.783658 -0.396443 1.393779 -82.336868 -7.125000 0.000000 0.000000 78.526573 26.585337 56.245686 -95.560694 55.926738 -55.864628 1.175678 0.675900 -85.216555 7.125000 0.000000 0.000000 
-0.101869 18.498146 4.155070 -1.935990 -4.633962 16.861464 -12.124067 -9.427558 -33.943602 1.813388 9.726364 28.704406 -1.123927 7.540499 -8.034950 8.069800 -16.170300 -52.813600 2.600718 2.143161 -1.312121 0.026082 1.056849 1.550529 0.365634 -0.546155 5.895208 0.000000 0.000000 0.000000 -13.391973 0.386789 36.725964 2.878212 0.395370 -24.903431 2.630961 2.057025 9.643076 0.482400 1.215400 7.703700 -91.102940 -66.317855 25.490289 34.282454 -43.051744 -12.923052 -0.381840 1.388986 -82.247899 -7.125000 0.000000 0.000000 78.998827 27.072511 56.388885 -94.987232 56.094719 -55.224128 1.219570 0.705058 -85.263161 7.125000 0.000000 0.000000 
-0.104320 18.497950 4.147227 -1.703662 -4.670336 16.863836 -12.379839 -9.459224 -33.924426 1.794018 9.701578 28.613293 -1.125448 7.546754 -7.988505 8.064500 -16.166500 -52.794800 2.596942 2.146668 -1.308832 0.025741 1.060838 1.552783 0.366893 -0.541755 5.896229 0.000000 0.000000 0.000000 -13.388855 0.639509 36.724944 2.537061 0.439018 -24.780000 2.170124 1.800545 9.385036 0.238500 1.065900 7.649800 -91.164718 -66.878428 26.506509 34.442973 -43.170015 -13.035713 -0.369673 1.386718 -82.361643 -7.125000 0.000000 0.000000 79.840956 27.508016 55.977249 -94.406813 56.260185 -54.607985 1.264400 0.720502 -85.268074 7.125000 0.000000 0.000000 
-0.107360 18.498636 4.138500 -1.489599 -4.675925 16.807082 -12.615686 -9.518518 -33.855526 1.784795 9.682925 28.566505 -1.133086 7.577588 -7.957687 8.077000 -16.175600 -52.839600 2.596711 2.147080 -1.307428 0.025539 1.061577 1.553084 0.367319 -0.541072 5.896716 0.000000 0.000000 0.000000 -13.148246 0.699529 36.674868 2.344162 0.463633 -24.891139 1.796102 1.647148 9.244124 0.085200 0.958700 7.605100 -90.749525 -67.118648 26.664881 34.774496 -43.383020 -13.242962 -0.363172 1.379565 -82.348719 -7.125000 0.000000 0.000000 80.609367 27.865705 55.994705 -94.001907 56.396380 -54.138203 1.302415 0.746107 -85.279218 7.125000 0.000000 0.000000 
-0.098928 18.497068 4.126931 -1.232879 -4.560545 16.947046 -12.847676 -9.894802 -33.952339 1.764561 9.653532 28.478023 -1.177111 7.780797 -7.971574 8.072800 -16.172600 -52.824600 2.598973 2.145879 -1.308078 0.025343 1.060288 1.552313 0.367185 -0.542631 5.896779 0.000000 0.000000 0.000000 -12.699823 0.605879 36.716115 2.177683 0.439111 -24.993534 1.480143 1.580790 8.990423 -0.004800 0.884100 7.512100 -90.281169 -67.299313 26.458376 35.147806 -43.621617 -13.480028 -0.353114 1.370603 -82.009918 -7.125000 0.000000 0.000000 81.270643 28.189485 56.226570 -93.755167 56.495782 -53.809553 1.340302 0.771696 -85.073764 7.125000 0.000000 0.000000 
-0.070887 18.487263 4.105655 -0.859430 -4.311995 17.520681 -13.057242 -10.892777 -34.499625 1.735131 9.655518 28.409189 -1.273116 8.258013 -8.137591 8.032700 -16.143300 -52.680500 2.594479 2.148855 -1.301073 0.024899 1.065138 1.554197 0.368811 -0.537909 5.898945 0.000000 0.000000 0.000000 -12.495485 0.426589 36.684598 1.912108 0.318931 -25.050915 1.320281 1.513570 8.836525 -0.041500 0.820700 7.448700 -89.930326 -67.503074 26.304484 35.460026 -43.821410 -13.680637 -0.345055 1.362983 -81.593297 -7.125000 0.000000 0.000000 81.985542 28.384684 56.547122 -93.737119 56.540176 -53.714753 1.373259 0.776369 -84.873201 7.125000 0.000000 0.000000 
-0.090398 18.494911 4.107812 -0.656914 -4.454239 16.960780 -13.497261 -10.271931 -33.884627 1.734383 9.576444 28.302234 -1.209972 7.911794 -7.876484 8.022400 -16.135700 -52.643400 2.609396 2.139299 -1.314619 0.025184 1.052303 1.548188 0.365555 -0.551458 5.895342 0.000000 0.000000 0.000000 -11.510837 0.468137 36.702941 1.952746 0.490437 -25.420860 0.590266 1.480309 8.453744 -0.263400 0.736400 7.295500 -89.635519 -67.769804 26.280148 35.788013 -44.045428 -13.887602 -0.339108 1.349324 -81.340318 -7.125000 0.000000 0.000000 82.688585 28.737541 56.891666 -93.760807 56.597146 -53.676305 1.397367 0.778002 -84.791499 7.125000 0.000000 0.000000 
-0.075789 18.487263 4.093301 -0.369106 -4.292602 17.291009 -13.733130 -10.796308 -34.165125 1.703652 9.536366 28.159691 -1.262268 8.152149 -7.839423 8.009600 -16.126300 -52.597300 2.612829 2.137733 -1.317086 0.024971 1.050066 1.547174 0.365228 -0.553890 5.894983 0.000000 0.000000 0.000000 -10.961753 0.363988 36.802509 1.765092 0.446264 -25.394876 -0.628930 1.509281 7.959554 -0.662700 0.645600 7.134700 -89.214570 -68.070773 26.208344 36.216274 -44.304427 -14.156997 -0.341831 1.339644 -81.151959 -7.125000 0.000000 0.000000 83.340620 29.193124 57.216414 -93.658783 56.665137 -53.522633 1.412788 0.794731 -84.530462 7.125000 0.000000 0.000000 
